<?xml version="1.0" encoding="UTF-8"?>
<svg width="161px" height="30px" viewBox="0 0 161 30" version="1.1" xmlns="http://www.w3.org/2000/svg" xmlns:xlink="http://www.w3.org/1999/xlink">
    <!-- Generator: Sketch 60 (88103) - https://sketch.com -->
    <title>logo</title>
    <desc>Created with Sketch.</desc>
    <g id="Page-2" stroke="none" stroke-width="1" fill="none" fill-rule="evenodd">
        <g id="home" transform="translate(-56.000000, -35.000000)">
            <g id="logo/light" transform="translate(56.000000, 35.000000)">
                <g id="light">
                    <g id="mark/air/light2" fill-rule="nonzero">
                        <g id="move-data-mark-copy-3">
                            <g id="Group">
                                <path d="M27.4677363,7.13281249 C26.0708057,4.875 24.16376,3.1328125 21.6602721,1.875 C19.1567841,0.617187502 16.3393792,0 13.129578,0 L0.651377749,0 C0.290373212,0 0,0.2890625 0,0.648437498 L0,13.1640625 C0,13.1640625 0,13.1953125 0,13.2265625 C0,13.7734375 0.745552844,14.421875 2.26805023,15.1640625 C0.745552844,15.90625 0,16.546875 0,17.09375 C0,17.15625 0,17.1875 0,17.15625 L0,29.3515625 C0,29.703125 0.290373212,30 0.651377749,30 L13.1374259,30 C16.3158354,30 19.17248,29.390625 21.66812,28.1328125 C24.16376,26.90625 26.1100453,25.1328125 27.4755842,22.875 C28.8411231,20.5859375 29.5160446,17.96875 29.5160446,15.0078125 C29.5160446,12.046875 28.8254273,9.39062498 27.4677363,7.13281249 Z" id="Path" fill="#FFFFFF"></path>
                                <g id="dots" transform="translate(3.610046, 5.703125)">
                                    <path d="M13.7652599,15.7578125 C14.4323335,15.7578125 14.9659923,16.2890625 14.9659923,16.9453125 C14.9659923,17.6015625 14.4244855,18.1328125 13.7652599,18.1328125 C13.0981862,18.1328125 12.5645274,17.6015625 12.5645274,16.9453125 C12.5645274,16.296875 13.1060342,15.7578125 13.7652599,15.7578125 Z M7.06313218,15.921875 C7.63603067,15.921875 8.1069062,16.3828125 8.1069062,16.953125 C8.1069062,17.5234375 7.64387862,17.984375 7.06313218,17.984375 C6.48238579,17.984375 6.01935821,17.5234375 6.01935821,16.953125 C6.01935821,16.3828125 6.49023369,15.921875 7.06313218,15.921875 Z M4.62242762,16.2109375 C5.03836766,16.2109375 5.36798046,16.5390625 5.36798046,16.953125 C5.36798046,17.3671875 5.0305197,17.6953125 4.62242762,17.6953125 C4.21433554,17.6953125 3.87687478,17.3671875 3.87687478,16.953125 C3.87687478,16.5390625 4.20648762,16.2109375 4.62242762,16.2109375 Z M2.40931287,16.375 C2.73107778,16.375 2.99790722,16.6328125 2.99790722,16.953125 C2.99790722,17.2734375 2.73892571,17.53125 2.40931287,17.53125 C2.07970003,17.53125 1.82071852,17.2734375 1.82071852,16.953125 C1.82071852,16.6328125 2.08754796,16.375 2.40931287,16.375 Z M17.9638995,11.734375 C18.7879317,11.734375 19.4628532,12.3984375 19.4628532,13.21875 C19.4628532,14.0390625 18.7957796,14.703125 17.9638995,14.703125 C17.1320195,14.703125 16.4649459,14.0390625 16.4649459,13.21875 C16.4727939,12.3984375 17.1398674,11.734375 17.9638995,11.734375 Z M7.06313218,12.1875 C7.63603067,12.1875 8.1069062,12.6484375 8.1069062,13.21875 C8.1069062,13.7890625 7.64387862,14.25 7.06313218,14.25 C6.48238579,14.25 6.01935821,13.7890625 6.01935821,13.21875 C6.01935821,12.6484375 6.49023369,12.1875 7.06313218,12.1875 Z M4.55964423,12.4765625 C4.97558425,12.4765625 5.30519705,12.8046875 5.30519705,13.21875 C5.30519705,13.6328125 4.9677363,13.9609375 4.55964423,13.9609375 C4.15155214,13.9609375 3.81409139,13.6328125 3.81409139,13.21875 C3.81409139,12.8046875 4.14370422,12.4765625 4.55964423,12.4765625 Z M2.40931287,12.640625 C2.73107778,12.640625 2.99790722,12.8984375 2.99790722,13.21875 C2.99790722,13.5390625 2.73892571,13.796875 2.40931287,13.796875 C2.07970003,13.796875 1.82071852,13.5390625 1.82071852,13.21875 C1.82071852,12.8984375 2.08754796,12.640625 2.40931287,12.640625 Z M17.9638995,3.8515625 C18.7879317,3.8515625 19.4628532,4.515625 19.4628532,5.33593751 C19.4628532,6.15624998 18.7957796,6.82031248 17.9638995,6.82031248 C17.1320195,6.82031248 16.4649459,6.15624998 16.4649459,5.33593751 C16.4649459,4.515625 17.1398674,3.8515625 17.9638995,3.8515625 Z M7.06313218,4.296875 C7.63603067,4.296875 8.1069062,4.7578125 8.1069062,5.32812502 C8.1069062,5.89843751 7.63603067,6.35937502 7.06313218,6.35937502 C6.49023369,6.35937502 6.01935821,5.89843751 6.01935821,5.32812502 C6.01935821,4.7578125 6.49023369,4.296875 7.06313218,4.296875 Z M4.55964423,4.5859375 C4.97558425,4.5859375 5.30519705,4.9140625 5.30519705,5.32812502 C5.30519705,5.74218748 4.9677363,6.07031252 4.55964423,6.07031252 C4.15155214,6.07031252 3.81409139,5.74218748 3.81409139,5.32812502 C3.81409139,4.9140625 4.14370422,4.5859375 4.55964423,4.5859375 Z M2.40931287,4.75 C2.73107778,4.75 2.99790722,5.00781251 2.99790722,5.32812502 C2.99790722,5.64843748 2.73892571,5.90625 2.40931287,5.90625 C2.07970003,5.90625 1.82071852,5.64843748 1.82071852,5.32812502 C1.82071852,5.00781251 2.08754796,4.75 2.40931287,4.75 Z M13.7652599,0.2734375 C14.4323335,0.2734375 14.9659923,0.804687502 14.9659923,1.4609375 C14.9659923,2.1171875 14.4323335,2.65625 13.7652599,2.65625 C13.0981862,2.65625 12.5645274,2.125 12.5645274,1.46875 C12.5645274,0.812499998 13.1060342,0.2734375 13.7652599,0.2734375 Z M7.06313218,0.4375 C7.63603067,0.4375 8.1069062,0.898437502 8.1069062,1.46875 C8.1069062,2.0390625 7.63603067,2.5 7.06313218,2.5 C6.49023369,2.5 6.01935821,2.0390625 6.01935821,1.46875 C6.01935821,0.898437502 6.49023369,0.4375 7.06313218,0.4375 Z M4.55964423,0.7265625 C4.97558425,0.7265625 5.30519705,1.0546875 5.30519705,1.46875 C5.30519705,1.8828125 4.9677363,2.2109375 4.55964423,2.2109375 C4.15155214,2.2109375 3.81409139,1.8828125 3.81409139,1.46875 C3.81409139,1.0546875 4.14370422,0.7265625 4.55964423,0.7265625 Z M2.40931287,0.890625 C2.73107778,0.890625 2.99790722,1.1484375 2.99790722,1.46875 C2.99790722,1.7890625 2.73892571,2.046875 2.40931287,2.046875 C2.07970003,2.046875 1.82071852,1.7890625 1.82071852,1.46875 C1.82071852,1.1484375 2.08754796,0.890625 2.40931287,0.890625 Z" id="Combined-Shape" fill="#010D2C" opacity="0.0969587"></path>
                                    <path d="M10.2493896,15.53125 C11.0184862,15.53125 11.6463202,16.1640625 11.6463202,16.9453125 C11.6463202,17.7265625 11.0184862,18.359375 10.2493896,18.359375 C9.48029297,18.359375 8.85245902,17.7265625 8.85245902,16.9453125 C8.85245902,16.1640625 9.48029297,15.53125 10.2493896,15.53125 Z M13.9300663,11.609375 C14.8325776,11.609375 15.5545867,12.328125 15.5545867,13.21875 C15.5545867,14.109375 14.8247297,14.828125 13.9300663,14.828125 C13.0275549,14.828125 12.3055459,14.109375 12.3055459,13.21875 C12.3055459,12.328125 13.0354028,11.609375 13.9300663,11.609375 Z M10.2493896,11.796875 C11.0184862,11.796875 11.6463202,12.4296875 11.6463202,13.2109375 C11.6463202,13.9921875 11.0184862,14.625 10.2493896,14.625 C9.48029297,14.625 8.85245902,13.9921875 8.85245902,13.2109375 C8.85245902,12.4296875 9.48029297,11.796875 10.2493896,11.796875 Z M17.9325079,7.39062502 C18.9370422,7.39062502 19.7532264,8.19531251 19.7532264,9.19531249 C19.7532264,10.1953125 18.9370422,11 17.9325079,11 C16.9279735,11 16.1117893,10.1953125 16.1117893,9.19531249 C16.1117893,8.19531251 16.9279735,7.39062502 17.9325079,7.39062502 Z M13.9300663,7.58593751 C14.8325776,7.58593751 15.5545867,8.30468749 15.5545867,9.19531249 C15.5545867,10.0859375 14.8247297,10.8046875 13.9300663,10.8046875 C13.0275549,10.8046875 12.3055459,10.0859375 12.3055459,9.19531249 C12.3055459,8.30468749 13.0354028,7.58593751 13.9300663,7.58593751 Z M10.2493896,7.77343751 C11.0184862,7.77343751 11.6463202,8.40624998 11.6463202,9.1875 C11.6463202,9.96875002 11.0184862,10.6015625 10.2493896,10.6015625 C9.48029297,10.6015625 8.85245902,9.96875002 8.85245902,9.1875 C8.85245902,8.40624998 9.48029297,7.77343751 10.2493896,7.77343751 Z M7.1573073,8.10156251 C7.76944539,8.10156251 8.26386467,8.59374998 8.26386467,9.19531249 C8.26386467,9.796875 7.76944539,10.2890625 7.1573073,10.2890625 C6.54516915,10.2890625 6.05074992,9.796875 6.05074992,9.19531249 C6.05074992,8.59374998 6.5530171,8.10156251 7.1573073,8.10156251 Z M4.71660272,8.25781249 C5.21886989,8.25781249 5.626962,8.67968749 5.626962,9.1875 C5.626962,9.69531251 5.21886989,10.1171875 4.71660272,10.1171875 C4.21433554,10.1171875 3.80624346,9.703125 3.80624346,9.1875 C3.80624346,8.671875 4.21433554,8.25781249 4.71660272,8.25781249 Z M2.50348797,8.484375 C2.8958842,8.484375 3.21764911,8.80468751 3.21764911,9.19531249 C3.21764911,9.58593748 2.8958842,9.90624998 2.50348797,9.90624998 C2.11109173,9.90624998 1.78932682,9.58593748 1.78932682,9.19531249 C1.78932682,8.80468751 2.11109173,8.484375 2.50348797,8.484375 Z M0.588594349,8.61718751 C0.910359261,8.61718751 1.1771887,8.87499998 1.1771887,9.19531249 C1.1771887,9.515625 0.918207187,9.77343748 0.588594349,9.77343748 C0.258981514,9.77343748 0,9.515625 0,9.19531249 C0,8.87499998 0.258981514,8.61718751 0.588594349,8.61718751 Z M13.9300663,3.71875 C14.8325776,3.71875 15.5545867,4.4375 15.5545867,5.32812502 C15.5545867,6.21875 14.8247297,6.9375 13.9300663,6.9375 C13.0275549,6.9375 12.3055459,6.21875 12.3055459,5.32812502 C12.3055459,4.4375 13.0354028,3.71875 13.9300663,3.71875 Z M10.2493896,3.9140625 C11.0184862,3.9140625 11.6463202,4.546875 11.6463202,5.32812502 C11.6463202,6.10937498 11.0184862,6.74218751 10.2493896,6.74218751 C9.48029297,6.74218751 8.85245902,6.10937498 8.85245902,5.32812502 C8.85245902,4.546875 9.48029297,3.9140625 10.2493896,3.9140625 Z M10.2493896,0.046875 C11.0184862,0.046875 11.6463202,0.6796875 11.6463202,1.4609375 C11.6463202,2.2421875 11.0184862,2.875 10.2493896,2.875 C9.48029297,2.875 8.85245902,2.2421875 8.85245902,1.4609375 C8.85245902,0.6796875 9.48029297,0.046875 10.2493896,0.046875 Z" id="Shape" fill="#0251F6"></path>
                                </g>
                            </g>
                        </g>
                    </g>
                    <g id="final/text/dark" transform="translate(39.750000, 6.000000)" fill-rule="nonzero">
                        <g id="move-data-text-copy">
                            <path d="M15.4995409,16.7035375 L15.4814128,5.81071805 L10.0973618,15.0095037 C10.0067212,15.1734424 9.82544002,15.2827349 9.62603072,15.2827349 L8.84652163,15.2827349 C8.64711233,15.2827349 8.48395925,15.1734424 8.37519055,15.0095037 L2.99113948,5.95644141 L2.99113948,16.7035375 C2.99113948,17.0131996 2.75547394,17.25 2.44729594,17.25 L0.543843544,17.25 C0.235665535,17.25 0,17.0131996 0,16.7035375 L0,0.546462513 C0,0.236800422 0.235665535,0 0.543843544,0 L2.26601476,0 C2.46542406,0 2.62857712,0.109292503 2.73734583,0.273231257 L9.28159645,11.439282 L15.7714627,0.182154171 C15.8439752,0.0728616683 15.9527439,0 16.0796407,0 L18.0918618,0 C18.2912711,0 18.4544242,0.163938754 18.4544242,0.364308342 L18.4725523,16.7035375 C18.4725523,17.0131996 18.2368868,17.25 17.9287088,17.25 C17.9287088,17.25 17.9287088,17.25 17.9287088,17.25 L16.0433845,17.25 C15.7533346,17.25 15.4995409,17.0131996 15.4995409,16.7035375 Z M28.2603416,17.1224921 C26.936989,17.1224921 25.7586613,16.8310454 24.7072305,16.2663675 C23.6557996,15.6834741 22.8219062,14.9002112 22.2418064,13.8619324 C21.6435785,12.8418691 21.3535286,11.6760824 21.3535286,10.3827878 C21.3535286,9.08949312 21.6435785,7.92370643 22.2418064,6.9036431 C22.8400343,5.88357973 23.6557996,5.08210136 24.7072305,4.51742344 C25.7586613,3.93453009 26.9551171,3.66129884 28.2603416,3.66129884 C29.5836942,3.66129884 30.78015,3.95274551 31.8315809,4.51742344 C32.8830117,5.10031677 33.7169051,5.88357973 34.2970049,6.9036431 C34.8952328,7.92370643 35.1852827,9.07127771 35.1852827,10.3827878 C35.1852827,11.6942978 34.8952328,12.8418691 34.2970049,13.8619324 C33.698777,14.8819958 32.8830117,15.6834741 31.8315809,16.2663675 C30.78015,16.8492608 29.5836942,17.1224921 28.2603416,17.1224921 Z M28.4053666,14.3537487 C29.4930536,14.3537487 30.3994595,13.9894403 31.1245843,13.2608236 C31.849709,12.532207 32.1941432,11.5667899 32.1941432,10.3645724 C32.1941432,9.1623548 31.8315809,8.1969377 31.1245843,7.46832101 C30.4175877,6.73970433 29.5111818,6.37539601 28.4053666,6.37539601 C27.3176795,6.37539601 26.4112736,6.73970433 25.704277,7.46832101 C24.9972804,8.1969377 24.634718,9.1623548 24.634718,10.3645724 C24.634718,11.5667899 24.9972804,12.532207 25.704277,13.2608236 C26.4112736,13.9894403 27.3176795,14.3537487 28.4053666,14.3537487 Z M49.1439335,4.97280886 L44.0499325,16.9221225 C43.9592919,17.1224921 43.7598826,17.25 43.5423452,17.25 L41.1313054,17.25 C40.913768,17.25 40.7143587,17.1224921 40.6237181,16.9221225 L35.5297169,4.97280886 C35.4028201,4.69957761 35.547845,4.37170011 35.8197668,4.2624076 C35.8922793,4.22597677 35.9647918,4.22597677 36.0373042,4.22597677 L38.0132691,4.22597677 C38.2308065,4.22597677 38.4302158,4.35348469 38.5208564,4.55385428 L42.4184018,13.8983632 L46.442844,4.55385428 C46.5334846,4.35348469 46.7328939,4.22597677 46.9504313,4.22597677 L48.6907307,4.22597677 C48.9989087,4.22597677 49.2345741,4.46277719 49.2345741,4.77243928 C49.1801899,4.82708553 49.1620617,4.8999472 49.1439335,4.97280886 Z M63.320122,10.4556494 C63.320122,10.6742344 63.3019937,10.9656811 63.2657378,11.3664203 L52.9508384,11.3664203 C53.1321195,12.3318374 53.6034504,13.0968849 54.3648317,13.6615628 C55.1262125,14.2262407 56.0688749,14.5176874 57.210946,14.5176874 C58.6611957,14.5176874 59.8395233,14.0440866 60.7821852,13.0968849 L62.4318442,14.9912883 C61.8336163,15.7016895 61.0903632,16.2299366 60.1839573,16.594245 C59.2775518,16.9585533 58.2623771,17.1407075 57.1384337,17.1407075 C55.6881845,17.1407075 54.4192158,16.8492608 53.3315288,16.2845829 C52.2438418,15.7199049 51.3918204,14.9184266 50.7935925,13.8801478 C50.1953646,12.8600845 49.8871866,11.6942978 49.8871866,10.4010032 C49.8871866,9.12592398 50.1772364,7.96013729 50.7573361,6.94007392 C51.3374358,5.92001055 52.1532012,5.11853222 53.1865041,4.53563886 C54.2198065,3.95274551 55.3800064,3.67951426 56.685231,3.67951426 C57.9723273,3.67951426 59.1143985,3.97096093 60.111445,4.53563886 C61.1084915,5.10031677 61.9061287,5.90179514 62.4681006,6.92185851 C63.0300721,7.92370643 63.320122,9.10770857 63.320122,10.4556494 Z M56.6127181,5.75607182 C55.6156716,5.75607182 54.7636503,6.06573391 54.0747819,6.66684264 C53.3859134,7.28616683 52.9689666,8.0876452 52.8239415,9.10770857 L60.3833666,9.10770857 C60.2564701,8.10586061 59.8395233,7.30438224 59.1687831,6.66684264 C58.4799146,6.06573391 57.6278928,5.75607182 56.6127181,5.75607182 Z" id="Shape" fill="#95C9FC"></path>
                            <path d="M94.8600504,5.14265132 C93.8698405,4.2305763 92.4295355,3.76559689 90.5391354,3.76559689 C89.4949139,3.76559689 88.4867005,3.90866748 87.5505022,4.17692484 C86.6143039,4.44518219 85.8041322,4.85651014 85.1379913,5.37514101 L86.3082389,7.59273516 C86.7943421,7.18140723 87.3704639,6.87738224 88.0726129,6.64489251 C88.7567579,6.41240283 89.4769104,6.30509984 90.1790589,6.30509984 C91.2232803,6.30509984 92.0154479,6.55547339 92.5555622,7.03833662 C93.0956765,7.52119985 93.3477303,8.21866901 93.3477303,9.13074403 L93.3477303,9.32746608 L90.0530322,9.32746608 C88.2166431,9.32746608 86.8843612,9.68514257 86.020178,10.3826117 C85.1739989,11.0979646 84.7419072,12.0279235 84.7419072,13.2082559 C84.7419072,13.9593764 84.939949,14.6210779 85.3360331,15.2291279 C85.7321171,15.8371779 86.2722314,16.2842735 86.9923839,16.6240662 C87.7125364,16.9638588 88.5407121,17.1248133 89.4949139,17.1248133 C90.4491162,17.1248133 91.2592879,16.9817426 91.9434328,16.6777176 C92.6275773,16.3736927 93.149688,15.9444809 93.5097645,15.3721985 L93.5097645,16.4094603 C93.5097645,16.7134853 93.7438139,16.945975 94.0498788,16.945975 L95.7962487,16.945975 C96.1023137,16.945975 96.336363,16.7134853 96.336363,16.4094603 L96.336363,9.30958227 C96.354367,7.4496646 95.8502603,6.07261016 94.8600504,5.14265132 Z M93.455753,12.7075088 C93.2036996,13.3155588 92.789612,13.798422 92.1954862,14.1203308 C91.6013604,14.4422397 90.9172154,14.6210779 90.1610553,14.6210779 C89.3868913,14.6210779 88.7747614,14.4601235 88.3246663,14.1560985 C87.8745706,13.8520735 87.6585248,13.4407455 87.6585248,12.9042308 C87.6585248,11.8133176 88.5407121,11.2768029 90.3050855,11.2768029 L93.455753,11.2768029 L93.455753,12.7075088 Z M105.392281,14.7641485 C104.816159,14.7641485 104.366064,14.6031941 104.059999,14.2634014 C103.753934,13.9414926 103.5919,13.4586294 103.5919,12.8326956 L103.5919,6.73431163 L106.526522,6.73431163 C106.832586,6.73431163 107.066636,6.50182195 107.066636,6.19779691 L107.066636,4.85651014 C107.066636,4.55248513 106.832586,4.31999543 106.526522,4.31999543 L103.5919,4.31999543 L103.5919,1.92356304 C103.5919,1.61953804 103.35785,1.38704833 103.051785,1.38704833 L101.08937,1.38704833 C100.783305,1.38704833 100.549255,1.61953804 100.549255,1.92356304 L100.549255,4.31999543 L98.9469161,4.31999543 C98.6408512,4.31999543 98.4068019,4.55248513 98.4068019,4.85651014 L98.4068019,6.19779691 C98.4068019,6.50182195 98.6408512,6.73431163 98.9469161,6.73431163 L100.549255,6.73431163 L100.549255,12.9221147 C100.549255,14.3349367 100.945339,15.4079661 101.719504,16.1412029 C102.493667,16.8744397 103.5919,17.25 105.014201,17.25 C105.572319,17.25 106.112434,17.1784647 106.634544,17.0353941 C107.138651,16.8923235 107.570743,16.6777176 107.930819,16.3915765 L107.08464,14.2455176 C106.634544,14.5853102 106.058423,14.7641485 105.392281,14.7641485 Z M119.273222,5.14265132 C118.60708,4.53460131 117.202783,4.06962189 115.024322,3.76559689 C114.988314,3.76559689 114.952306,3.76559689 114.916299,3.76559689 C113.584017,3.85501601 112.61181,3.9980866 111.981677,4.17692484 C111.459567,4.33787925 110.793425,4.64190426 110.001258,5.10688369 C109.749204,5.24995426 109.659185,5.57186311 109.803216,5.82223661 L110.469357,7.0741043 C110.469357,7.09198811 110.48736,7.09198811 110.48736,7.10987193 C110.649395,7.36024548 110.973463,7.43178078 111.225517,7.28871017 C111.71162,6.98468518 112.143711,6.77007926 112.485784,6.66277632 C113.169929,6.43028664 113.890081,6.32298371 114.59223,6.32298371 C115.636451,6.32298371 116.428619,6.5733572 116.968733,7.05622049 C117.508848,7.53908372 117.760901,8.23655282 117.760901,9.14862784 L117.760901,9.3453499 L114.466203,9.3453499 C112.629814,9.3453499 111.297532,9.70302638 110.433349,10.4004955 C109.58717,11.1158484 109.155078,12.0458073 109.155078,13.2261397 C109.155078,13.9772603 109.35312,14.6389617 109.749204,15.2470117 C110.145288,15.8550617 110.685403,16.3021574 111.405555,16.64195 C112.125708,16.9817426 112.953883,17.1426971 113.908085,17.1426971 C114.862287,17.1426971 115.672459,16.9996265 116.356604,16.6956015 C117.040748,16.3915765 117.562859,15.9623647 117.922936,15.3900823 L117.922936,16.4094603 C117.922936,16.7134853 118.156985,16.945975 118.46305,16.945975 L120.20942,16.945975 C120.515485,16.945975 120.749534,16.7134853 120.749534,16.4094603 L120.749534,9.30958227 C120.767538,7.4496646 120.263431,6.07261016 119.273222,5.14265132 Z M117.868924,12.7075088 C117.616871,13.3155588 117.202783,13.798422 116.608657,14.1203308 C116.014531,14.4422397 115.330387,14.6210779 114.574226,14.6210779 C113.800062,14.6210779 113.187933,14.4601235 112.737837,14.1560985 C112.305746,13.8520735 112.071696,13.4407455 112.071696,12.9042308 C112.071696,11.8133176 112.953883,11.2768029 114.718257,11.2768029 L117.868924,11.2768029 L117.868924,12.7075088 Z M78.7826449,1.53011892 C77.3963515,0.832649792 75.8120157,0.492857143 74.0476418,0.492857143 L67.1161741,0.492857143 C66.9181318,0.492857143 66.7560976,0.653811555 66.7560976,0.850533616 L66.7560976,7.82522489 C66.7560976,8.12924988 67.1701851,8.48692637 68.0163643,8.89825429 C67.1701851,9.30958227 66.7560976,9.66725875 66.7560976,9.97128374 C66.7560976,10.0070514 66.7560976,10.0249352 66.7560976,10.0249352 L66.7560976,16.7671368 C66.7560976,16.9638588 66.9181318,17.1248133 67.1161741,17.1248133 L74.0476418,17.1248133 C75.8300198,17.1248133 77.3963515,16.7850206 78.7826449,16.0875515 C80.1689388,15.3900823 81.2311638,14.4243559 82.0053274,13.1724882 C82.761488,11.9206205 83.139568,10.454147 83.139568,8.80883517 C83.139568,7.16352342 82.761488,5.71493367 82.0053274,4.44518219 C81.2311638,3.19331453 80.1689388,2.20970422 78.7826449,1.53011892 Z M79.178729,11.6165955 C78.6926258,12.4034838 78.0264848,13.0115337 77.1623016,13.4407455 C76.2981189,13.8699573 75.307909,14.0845632 74.1916725,14.0845632 L69.9967841,14.0845632 C69.7987418,14.0845632 69.6367076,13.9236088 69.6367076,13.7268867 L69.6367076,4.06962189 C69.6367076,3.87289983 69.7987418,3.71194542 69.9967841,3.71194542 L74.2096765,3.71194542 C75.3259126,3.71194542 76.3161225,3.9265513 77.1803057,4.35576307 C78.0444884,4.78497484 78.7106298,5.39302487 79.1967325,6.17991309 C79.6828357,6.96680136 79.916885,7.87887634 79.916885,8.89825429 C79.916885,9.91763225 79.6648316,10.8297073 79.178729,11.6165955 Z" id="Shape" fill="#FFFFFF"></path>
                        </g>
                    </g>
                </g>
            </g>
        </g>
    </g>
</svg>